<svg width="200" height="200" viewBox="0 0 200 200" fill="none" xmlns="http://www.w3.org/2000/svg">
<path d="M148.964 100.5C158.373 100.5 166.218 108.256 163.765 117.339C161.895 124.261 158.876 130.871 154.793 136.89C147.486 147.661 137.1 156.057 124.948 161.014C112.797 165.972 99.4262 167.269 86.5265 164.741C73.6268 162.214 61.7776 155.976 52.4774 146.815C43.1772 137.655 36.8437 125.984 34.2778 113.278C31.7119 100.573 33.0288 87.4028 38.062 75.4342C43.0952 63.4657 51.6187 53.236 62.5546 46.0387C68.807 41.9238 75.6874 38.9058 82.892 37.0756C91.8741 34.7937 99.5 42.5127 99.5 51.7801V51.7801C99.5 61.0476 91.5207 68.215 83.4401 72.7525C82.7756 73.1256 82.1233 73.5226 81.4843 73.9431C76.1517 77.4527 71.9954 82.441 69.541 88.2772C67.0867 94.1134 66.4445 100.535 67.6957 106.731C68.9469 112.927 72.0354 118.618 76.5704 123.085C81.1054 127.552 86.8834 130.594 93.1737 131.826C99.464 133.058 105.984 132.426 111.909 130.008C117.835 127.591 122.899 123.497 126.462 118.245C126.802 117.745 127.126 117.236 127.435 116.72C132.267 108.647 139.555 100.5 148.964 100.5V100.5Z" fill="url(#paint0_angular_45_46)"/>
<defs>
<radialGradient id="paint0_angular_45_46" cx="0" cy="0" r="1" gradientUnits="userSpaceOnUse" gradientTransform="translate(99.5 100.5) rotate(-0.430787) scale(66.5019 65.5019)">
<stop stop-color="#262626"/>
<stop offset="0.75" stop-color="#262626" stop-opacity="0"/>
</radialGradient>
</defs>
</svg>
